<svg xmlns="http://www.w3.org/2000/svg" version="1.1" xmlns:xlink="http://www.w3.org/1999/xlink" viewBox="0 0 200 200"><rect width="200" height="200" fill="url('#gradient')"></rect><defs><linearGradient id="gradient" gradientTransform="rotate(45 0.5 0.5)"><stop offset="0%" stop-color="#c4d4de"></stop><stop offset="100%" stop-color="#6a6a6a"></stop></linearGradient></defs><g><g fill="#191718" transform="matrix(9.044044160371877,0,0,9.044044160371877,20.81951275938198,167.3341992173203)" stroke="#999b99" stroke-width="0.35"><path d="M12.24-14.22L12.24-11.57L7.97-11.57L7.97 0L4.54 0L4.54-11.57L0.35-11.57L0.35-14.22L12.24-14.22ZM17.00-10.57L17.00 0L13.70 0L13.70-10.57L17.00-10.57ZM13.51-13.29L13.51-13.29Q13.51-13.99 14.01-14.44Q14.52-14.89 15.33-14.89Q16.14-14.89 16.65-14.44Q17.16-13.99 17.16-13.29Q17.16-12.59 16.65-12.14Q16.14-11.69 15.33-11.69Q14.52-11.69 14.01-12.14Q13.51-12.59 13.51-13.29Z"></path></g></g></svg>